<svg width="768" height="1000" viewBox="0 0 768 1000" fill="none" xmlns="http://www.w3.org/2000/svg">
<path d="M362.142 958.175C346.129 939.082 314.325 920.169 288.06 919.641C287.669 919.62 287.268 919.589 286.899 919.589C253.038 919.589 214.209 952.743 205.57 974.251C203.808 978.608 202.479 984.504 206.013 987.901C213.313 994.916 247.785 1000 287.986 1000C326.857 1000 358.281 995.179 368.028 987.69C372.374 984.367 373.418 979.599 371.224 973.122C369.589 968.354 366.424 963.259 362.142 958.175Z" fill="#26534C"/>
<path d="M763.692 973.122C755.939 950.253 712.828 919.589 679.378 919.589C673.45 919.589 667.374 920.665 661.351 922.447C645.338 927.184 629.652 937.342 617.648 948.481C608.27 957.184 601.161 966.477 598.038 974.241C596.298 978.597 594.948 984.494 598.492 987.89C605.792 994.905 640.254 999.989 680.465 999.989C719.325 999.989 750.728 995.169 760.486 987.679C764.842 984.357 765.897 979.599 763.692 973.122Z" fill="#26534C"/>
<path d="M209.273 547.964C210.802 533.724 212.901 519.715 215.539 506.055C212.226 505.39 208.904 504.726 205.581 504.051C203.64 514.546 201.541 525.654 199.304 537.257C198.766 539.989 198.218 542.764 197.69 545.548C200.275 546.086 202.87 546.624 205.423 547.131C206.709 547.416 207.986 547.7 209.273 547.964Z" fill="#26534C"/>
<path d="M150.412 536.002C159.484 537.806 168.714 539.652 177.933 541.477C182.5 542.416 187.079 543.376 191.625 544.314C192.216 541.551 192.806 538.776 193.387 536.076C195.887 524.557 198.334 513.492 200.665 503.112C189.937 500.886 179.22 498.66 168.65 496.498C164.969 495.717 161.34 494.947 157.701 494.167C156.108 502.205 154.484 510.317 152.88 518.449C151.678 524.262 150.486 530.053 149.294 535.812C149.673 535.876 150.043 535.928 150.412 536.002Z" fill="#26534C"/>
<path d="M206.372 597.215C206.551 582.785 207.279 568.534 208.608 554.504C207.1 554.209 205.612 553.935 204.093 553.65C201.54 553.133 198.956 552.626 196.382 552.11C195.306 557.626 194.209 563.228 193.102 568.903C191.467 577.036 189.811 585.327 188.133 593.597C194.199 594.81 200.285 596.012 206.372 597.215Z" fill="#26534C"/>
<path d="M105.222 578.207C113.819 579.684 123.302 581.34 133.366 583.196C134.02 579.662 134.695 576.065 135.37 572.426C137.089 563.587 138.735 554.43 140.612 545.169C140.887 543.745 141.193 542.3 141.467 540.854C135.053 539.483 128.693 538.122 122.511 536.783C114.705 535.095 107.174 533.439 99.9478 531.793C99.1777 535.338 98.3971 538.871 97.6587 542.321C95.0849 554.156 92.5743 565.38 90.2009 575.686C94.8317 576.445 99.8528 577.268 105.222 578.207Z" fill="#26534C"/>
<path d="M195.76 695.432C199.515 696.16 203.397 696.856 207.29 697.574C206.804 683.323 206.572 668.787 206.446 654.061C198.081 652.268 189.842 650.506 181.868 648.787C180.18 648.418 178.503 648.07 176.825 647.69C175.528 653.734 174.241 659.768 172.986 665.622C171.129 674.219 169.273 682.574 167.49 690.58C176.066 691.962 185.602 693.586 195.76 695.432Z" fill="#26534C"/>
<path d="M52.511 518.439C59.2726 519.515 67.2895 520.77 76.2557 522.352C82.0258 523.312 88.2072 524.409 94.6945 525.57C95.338 522.141 96.0026 518.713 96.6988 515.232C98.4393 506.424 100.222 497.447 102.005 488.513C102.416 486.477 102.849 484.441 103.26 482.405C94.684 480.506 86.53 478.66 78.9561 476.909C73.2494 475.622 67.9118 474.367 62.9013 473.186C62.2895 476.034 61.6671 478.84 61.0975 481.624C58.7241 492.553 56.3717 502.721 54.2409 511.424C53.6502 513.882 53.0806 516.224 52.511 518.439Z" fill="#26534C"/>
<path d="M72.9331 421.667C85.4015 423.84 99.5154 426.382 114.568 429.219C117.669 415.084 120.676 401.909 123.387 390.39C123.587 389.557 123.777 388.755 123.977 387.922C123.228 387.764 122.49 387.627 121.762 387.468C116.783 386.392 111.815 385.327 106.91 384.283C101.994 383.238 97.2158 382.068 92.5639 380.992C88.1863 379.968 83.9563 378.956 79.9268 377.932C79.7053 379.462 79.4837 381.013 79.2411 382.648C77.9647 391.508 76.3508 401.825 74.4626 412.827C73.9352 415.717 73.4394 418.692 72.9331 421.667Z" fill="#26534C"/>
<path d="M206.403 647.342C206.33 634.652 206.33 621.825 206.33 608.882V604.177C206.203 604.177 206.087 604.146 205.971 604.114C199.568 602.774 193.186 601.466 186.825 600.158C186.741 600.612 186.646 601.065 186.562 601.519C184.283 612.447 181.994 623.344 179.758 634.114C179.199 636.74 178.64 639.335 178.07 641.951C179.737 642.247 181.393 642.574 183.07 642.89C190.633 644.346 198.46 645.844 206.403 647.342Z" fill="#26534C"/>
<path d="M179.684 591.909C180.275 592.046 180.886 592.141 181.477 592.278C183.207 583.987 184.937 575.738 186.635 567.563C187.838 561.941 189.051 556.371 190.222 550.886C185.675 549.968 181.129 549.061 176.583 548.175C167.363 546.245 158.154 544.356 149.093 542.479C148.724 542.394 148.355 542.31 147.986 542.236C147.69 543.66 147.395 545.084 147.121 546.466C145.232 555.728 143.176 564.799 141.308 573.618C140.538 577.204 139.768 580.717 138.998 584.188C143.534 585.021 148.165 585.875 152.88 586.793C161.551 588.46 170.549 590.169 179.684 591.909Z" fill="#26534C"/>
<path d="M127.785 633.069C130.739 633.555 133.84 634.072 137.079 634.62C147.469 636.392 159.178 638.47 171.699 640.78C172.216 638.101 172.743 635.453 173.26 632.774C175.433 622.004 177.627 611.076 179.821 600.158C179.927 599.673 180.032 599.219 180.117 598.766C179.526 598.65 178.935 598.523 178.355 598.386C169.262 596.455 160.317 594.536 151.667 592.679C146.942 591.666 142.311 590.654 137.785 589.631C135.233 601.15 132.764 611.93 130.496 621.603C129.568 625.654 128.661 629.451 127.785 633.069Z" fill="#26534C"/>
<path d="M239.863 868.291C237.237 863.017 234.832 857.542 232.595 851.951C232.047 854.23 231.541 856.403 231.076 858.344C228.576 868.576 227.142 874.409 227.142 874.409C227.142 874.409 228.102 868.47 229.768 858.07C230.254 855.316 230.792 852.205 231.351 848.84C225.855 834.536 221.583 819.24 218.228 803.186C210.676 801.15 206.235 799.842 206.235 799.842C206.235 799.842 210.549 800.316 217.838 801.318C214.747 786.076 212.479 770.116 210.834 753.629C208.576 753.059 206.372 752.553 204.241 752.025C203.439 755.538 202.659 759.008 201.899 762.342C197.912 780.126 194.262 794.905 191.868 805.264C189.336 815.591 187.891 821.519 187.891 821.519C187.891 821.519 188.851 815.517 190.549 805C192.384 794.525 194.79 779.504 198.028 761.54C198.629 758.143 199.273 754.578 199.937 750.991C199.927 750.991 199.906 750.96 199.895 750.96C180.844 746.276 168.249 742.553 168.249 742.553C168.249 742.553 181.277 744.029 200.633 747.131C202.785 735.295 205.159 722.5 207.711 709.093C207.648 707.489 207.574 705.844 207.511 704.209C203.112 703.27 198.766 702.278 194.536 701.371C184.441 699.093 174.99 696.867 166.541 694.81C164.41 704.261 162.374 713.175 160.465 721.424C156.73 737.732 153.313 751.255 151.076 760.759C148.745 770.243 147.332 775.654 147.332 775.654C147.332 775.654 148.165 770.116 149.768 760.485C151.425 750.875 153.619 737.089 156.604 720.622C158.091 712.236 159.737 703.164 161.53 693.576C142.69 688.924 130.275 685.253 130.275 685.253C130.275 685.253 143.112 686.698 162.247 689.757C163.777 681.635 165.38 673.186 167.057 664.451C168.228 658.513 169.399 652.458 170.602 646.35C158.165 643.586 146.541 640.939 136.277 638.502C133.049 637.764 129.948 637.004 127.005 636.287C125.159 643.861 123.524 650.337 122.29 655.454C120.264 663.618 119.019 668.28 119.019 668.28C119.019 668.28 119.673 663.513 120.992 655.211C121.868 650 122.88 643.354 124.136 635.591C116.192 633.66 109.42 631.92 104.157 630.664C96.4245 628.734 92.0153 627.532 92.0153 627.532C92.0153 627.532 96.5406 628.143 104.42 629.346C109.726 630.232 116.604 631.287 124.631 632.595C125.243 628.871 125.908 624.989 126.625 620.865C128.302 611.034 130.243 600.116 132.384 588.47C122.363 586.245 112.954 584.082 104.441 582.078C99.1039 580.844 94.1144 579.641 89.5364 578.544C88.7874 581.783 88.049 584.968 87.3317 588.017C84.2305 601.35 81.3507 612.384 79.4731 620.179C77.5322 627.911 76.3296 632.331 76.3296 632.331C76.3296 632.331 76.952 627.806 78.1756 619.905C79.4731 612.004 81.1187 600.707 83.471 587.205C83.9878 584.072 84.5575 580.812 85.1482 577.426C79.7684 576.118 75.0427 574.937 71.1397 573.998C63.1229 572.004 58.5554 570.759 58.5554 570.759C58.5554 570.759 63.2389 571.403 71.4034 572.69C75.338 573.333 80.1165 574.082 85.5807 574.968C87.395 564.525 89.4731 553.122 91.7305 541.15C92.4161 537.637 93.0807 534.051 93.7558 530.432C87.3317 528.956 81.1925 527.574 75.4752 526.202C66.5406 524.145 58.6503 522.183 51.9731 520.527C48.8718 532.743 46.625 540.348 46.625 540.348C46.625 540.348 47.3845 532.363 49.0828 519.81C46.625 519.219 44.357 518.66 42.3212 518.186C34.3465 516.202 29.7895 514.968 29.7895 514.968C29.7895 514.968 34.4625 515.58 42.5849 516.867C44.6208 517.215 46.8676 517.563 49.3359 517.964C49.6418 515.654 49.99 513.249 50.3697 510.707C51.6461 501.846 53.26 491.508 55.1693 480.506C55.6756 477.648 56.1714 474.694 56.6883 471.751C49.6735 470.063 43.5343 468.597 38.5343 467.416C28.7874 465.084 23.2283 463.639 23.2283 463.639C23.2283 463.639 28.9035 464.504 38.798 466.129C43.8507 466.983 50.0427 467.996 57.1524 469.209C57.4689 467.31 57.8064 465.443 58.1651 463.534C59.2516 457.785 60.3486 451.909 61.4457 446.055C62.6271 440.211 63.798 434.356 64.9583 428.597C65.2537 427.12 65.5807 425.654 65.8866 424.177C53.0701 421.181 42.3634 418.502 34.5786 416.656C25.8022 414.515 20.8127 413.175 20.8127 413.175C20.8127 413.175 25.9288 413.924 34.8423 415.348C42.7326 416.688 53.6397 418.375 66.6144 420.622C67.2684 417.616 67.9119 414.652 68.5343 411.762C70.9077 400.812 73.2494 390.664 75.3908 381.962C75.7916 380.295 76.1819 378.713 76.5722 377.162C73.3022 376.329 70.1482 375.496 67.2262 374.726C52.4478 370.844 42.7115 367.627 42.7115 367.658C42.7115 367.658 52.9119 368.597 68.0279 370.897C71.0659 371.35 74.3676 371.867 77.7642 372.426C80.8022 360.485 83.0068 353.07 83.0068 353.07C83.0068 353.07 82.2684 360.728 80.6334 372.88C84.8212 373.576 89.2305 374.356 93.7874 375.158C98.4815 376.034 103.344 376.878 108.26 377.859C113.176 378.84 118.165 379.842 123.165 380.833C123.967 380.992 124.758 381.181 125.581 381.34C127.828 372.046 129.842 364.198 131.277 358.281C133.218 350.538 134.41 346.129 134.41 346.129C134.41 346.129 133.809 350.654 132.574 358.555C131.583 364.578 130.37 372.584 128.819 382.036C131.899 382.7 134.99 383.375 138.028 384.019C142.922 385.032 147.722 386.234 152.374 387.31C160.074 389.103 167.311 390.897 173.766 392.584C174.937 387.869 175.971 383.66 176.825 380.127C178.851 371.962 180.095 367.331 180.095 367.331C180.095 367.331 179.441 372.099 178.123 380.401C177.522 384.019 176.836 388.323 176.066 393.196C176.604 393.333 177.173 393.491 177.701 393.629C192.49 397.51 202.226 400.728 202.226 400.728C202.226 400.728 192.026 399.789 176.91 397.489C176.425 397.405 175.908 397.331 175.412 397.247C174.547 402.553 173.587 408.418 172.479 414.757C171.171 422.416 169.695 430.77 168.091 439.599C173.123 440.622 178.176 441.603 183.218 442.626C193.313 444.715 203.408 446.783 213.344 448.84C213.387 448.871 213.408 448.871 213.439 448.871C214.136 446.002 214.758 443.375 215.328 440.991C217.648 431.508 219.062 426.097 219.062 426.097C219.062 426.097 218.228 431.614 216.625 441.255C216.203 443.671 215.749 446.34 215.275 449.23C219.958 450.253 224.621 451.234 229.23 452.226C237.69 425.559 248.313 400.527 260.792 377.521C210.422 340.812 159.325 319.757 114.895 319.757C91.5617 319.757 70.9288 325.591 53.5659 337.11C12.184 364.536 -6.19149 421.055 1.84648 496.276C9.82117 570.823 42.8169 655.021 94.7368 733.375L97.6693 737.816C149.188 815.548 195.591 885.633 248.123 925.981C248.123 925.981 255.19 921.962 260.771 919.905C266.351 917.88 274.083 915.939 274.083 915.939C259.758 901.994 249.283 887.162 239.863 868.291Z" fill="#26534C"/>
<path d="M210.349 748.671C209.8 742.827 209.347 736.92 208.935 730.918C207.659 736.73 206.404 742.405 205.19 747.838C206.868 748.101 208.587 748.365 210.349 748.671Z" fill="#26534C"/>
<path d="M209.747 481.055C208.83 486.224 207.827 491.688 206.804 497.363C210.148 498.027 213.513 498.724 216.846 499.42C219.768 485.337 223.26 471.603 227.3 458.238C222.965 457.373 218.555 456.551 214.135 455.696C212.901 463.08 211.446 471.624 209.747 481.055Z" fill="#26534C"/>
<path d="M166.857 446.192C165.855 451.688 164.79 457.331 163.714 463.091C162.174 471.15 160.581 479.451 158.956 487.859C162.627 488.586 166.277 489.283 170.001 490C180.612 492.12 191.404 494.262 202.195 496.403C203.471 490.802 204.716 485.401 205.908 480.285C208.049 470.939 210.074 462.532 211.836 455.243C201.931 453.291 191.868 451.287 181.815 449.272C176.825 448.249 171.836 447.215 166.857 446.192Z" fill="#26534C"/>
<path d="M142.733 534.536C143.882 528.713 145.032 522.901 146.203 517.078C147.891 508.934 149.558 500.823 151.235 492.785C146.203 491.709 141.203 490.643 136.309 489.599C127.195 487.648 118.376 485.717 109.916 483.871C109.515 485.875 109.125 487.859 108.724 489.863C106.878 498.808 105.011 507.732 103.197 516.54C102.501 519.958 101.773 523.344 101.055 526.709C108.313 528.027 115.887 529.42 123.714 530.886C129.895 532.057 136.287 533.302 142.733 534.536Z" fill="#26534C"/>
<path d="M63.5342 470.232C68.5869 471.097 74.0089 472.025 79.7473 473.08C87.3949 474.42 95.6333 475.897 104.294 477.5C105.38 472.247 106.467 467.004 107.543 461.835C109.431 453.049 111.277 444.409 113.07 436.055C113.144 435.654 113.249 435.253 113.334 434.852C98.4287 431.582 84.4941 428.449 72.2051 425.612C71.973 427.004 71.7304 428.397 71.4561 429.81C70.3696 435.591 69.2726 441.456 68.1755 447.321C67.0152 453.165 65.8338 458.998 64.6629 464.757C64.3148 466.593 63.9245 468.418 63.5342 470.232Z" fill="#26534C"/>
<path d="M172.701 396.783C166.119 395.759 158.84 394.557 151.119 393.143C146.435 392.268 141.562 391.456 136.657 390.443C133.682 389.852 130.676 389.262 127.659 388.65C127.522 389.504 127.384 390.338 127.226 391.192C125.254 402.816 122.901 416.087 120.264 430.285C121.414 430.506 122.564 430.717 123.735 430.928C133.218 432.753 143.028 434.652 152.986 436.582C156.287 437.226 159.631 437.89 162.943 438.565C164.916 429.778 166.815 421.487 168.598 413.935C170.053 407.679 171.435 401.983 172.701 396.783Z" fill="#26534C"/>
<path d="M122.543 436.846C121.414 436.582 120.306 436.34 119.178 436.097C119.114 436.477 119.041 436.846 118.977 437.215C117.374 445.622 115.707 454.304 114.019 463.143C112.986 468.28 111.973 473.502 110.929 478.702C119.462 480.285 128.334 481.972 137.49 483.713C142.416 484.673 147.448 485.643 152.511 486.624C154.304 478.217 156.087 469.915 157.796 461.909C159.041 456.15 160.275 450.527 161.498 445.063C158.218 444.399 154.937 443.724 151.688 443.059C141.762 440.939 131.994 438.861 122.543 436.846Z" fill="#26534C"/>
<path d="M427.638 448.112C432.543 452.394 441.815 454.937 452.469 454.937C462.005 454.937 470.623 452.901 476.541 449.346C482.469 452.901 491.076 454.937 500.612 454.937C511.266 454.937 520.538 452.363 525.433 448.112C534.747 440.021 532.268 415.928 531.519 410.042C528.513 410.411 526.393 410.517 526.393 410.517C527.574 420.633 528.028 439.061 522.057 444.262C518.133 447.658 509.916 449.8 500.623 449.8C492.226 449.8 484.378 448.006 479.294 445V401.867L476.551 398.629L473.956 401.867L473.808 445C468.745 448.006 460.844 449.8 452.479 449.8C443.186 449.8 434.969 447.658 431.024 444.262C425.085 439.061 425.486 421.044 426.657 410.897C426.657 410.897 424.072 410.812 421.53 410.464C420.728 416.899 418.481 440.169 427.638 448.112Z" fill="#26534C"/>
<path d="M681.003 371.297C660.655 386.456 640.085 398.397 620.518 407.605C606.889 413.956 593.788 419.124 581.435 423.217C569.051 427.183 557.522 430.39 546.942 432.563C542.374 433.555 538.039 434.356 533.882 435.074C532.933 441.255 531.024 446.888 527.427 450.021C522.237 454.525 512.48 457.226 501.309 457.226C491.583 457.226 482.743 455.221 476.53 451.624C470.317 455.211 461.488 457.226 451.762 457.226C440.602 457.226 430.834 454.546 425.655 450.021C421.825 446.677 419.916 440.548 419.041 433.935C416.836 433.502 414.61 433.07 412.311 432.574C401.741 430.401 390.201 427.194 377.817 423.228C365.475 419.135 352.363 413.966 338.735 407.616C317.785 397.732 295.644 384.747 273.893 368.017C235.992 431.941 213.176 514.008 213.176 603.397V608.903C213.165 706.909 213.144 799.473 245.992 865.243C255.454 884.177 267.416 900.464 282.005 914.23C282.047 914.23 282.068 914.23 282.11 914.23C282.237 914.335 282.353 914.462 282.469 914.599C284.104 914.441 285.728 914.367 287.342 914.367C306.804 914.367 328.798 923.713 346.298 936.266C356.604 943.713 365.328 952.257 370.971 960.612C371.045 960.643 371.14 960.665 371.224 960.696C371.288 960.781 371.372 960.886 371.446 960.96C401.541 968.724 436.52 972.532 476.826 972.532C527.944 972.532 570.507 966.424 605.391 953.861C620.57 936.266 645.823 918.724 670.644 915.084C685.507 901.213 697.617 884.747 707.205 865.601C740.032 799.842 740.032 707.268 740.032 609.262V603.745C740.032 515.707 717.849 434.778 681.003 371.297ZM645.043 648.281C651.235 671.255 654.6 695.865 654.6 721.466C654.6 847.11 573.882 949.325 474.642 949.325C440.655 949.325 408.861 937.321 381.709 916.519C329.842 876.487 295.127 804.198 295.127 721.825C295.127 697.405 298.218 673.892 303.861 651.825L237.015 559.546L241.425 556.361L305.264 644.483L309.494 650.316L320.802 665.928C322.121 667.236 323.513 668.439 324.948 669.599C333.956 676.962 345.138 680.981 356.931 680.981C370.465 680.981 383.186 675.707 392.754 666.15C412.458 646.413 412.501 614.388 392.891 594.631L392.437 594.283L351.836 563.829L347.374 560.485L284.463 513.291L287.828 508.787L351.425 556.508C383.703 517.785 427.247 493.924 475.106 493.924C507.712 493.924 538.302 504.979 564.684 524.262C576.562 532.985 587.585 543.376 597.543 555.19L597.638 555.137C597.775 555.274 597.891 555.401 598.018 555.57L660.254 510.475L663.218 514.578L601.119 559.536L596.593 562.827L553.176 594.283C533.577 614.051 533.619 646.076 553.323 665.749C554.653 667.089 556.066 668.323 557.501 669.483C566.53 676.899 577.764 680.97 589.621 680.97C603.081 680.97 615.76 675.717 625.317 666.266L639.399 647.437L643.629 641.846L706.667 557.816L710.686 560.812L645.043 648.281Z" fill="#26534C"/>
<path d="M606.192 341.255C603.133 333.513 596.636 327.173 589.093 322.352C581.498 317.51 572.849 313.945 563.84 311.181C554.832 308.397 545.412 306.445 535.855 304.947C516.688 301.951 496.931 300.981 477.11 300.981C457.374 300.96 437.553 301.867 418.365 304.652C408.787 306.097 399.336 307.922 390.285 310.622C381.224 313.249 372.532 316.677 364.832 321.361C357.216 326.023 350.528 332.236 347.448 339.916C344.273 347.605 345.486 356.192 349.135 363.344C352.806 370.57 358.355 376.624 364.336 381.603C370.359 386.582 376.836 390.686 383.355 393.977C396.435 400.485 409.515 404.631 421.15 406.508C432.891 408.302 443.334 407.416 451.562 405.432C459.811 403.449 465.887 400.506 469.79 398.259C471.752 397.11 473.144 396.118 474.083 395.443C475.022 394.747 475.412 394.399 475.422 394.399L476.657 393.302L477.775 394.504C477.775 394.504 478.112 394.884 479.009 395.601C479.863 396.329 481.256 397.342 483.144 398.523C486.931 400.886 493.038 403.692 501.33 405.517C509.579 407.31 520.116 407.732 531.825 406.16C543.756 404.473 556.794 401.15 570.085 394.884C576.688 391.783 583.249 387.848 589.315 382.911C595.338 377.985 600.908 371.983 604.526 364.757C608.144 357.584 609.241 348.966 606.192 341.255ZM476.541 350.707C454.874 350.707 437.3 341.202 437.3 329.494C437.3 317.795 454.874 308.291 476.541 308.291C498.197 308.291 515.76 317.795 515.76 329.494C515.76 341.192 498.197 350.707 476.541 350.707Z" fill="#26534C"/>
<path d="M323.165 152.437C305.739 152.437 291.593 179.536 291.593 212.954C291.593 246.371 305.728 273.47 323.165 273.47C340.612 273.47 354.747 246.371 354.747 212.954C354.747 179.536 340.612 152.437 323.165 152.437ZM315.433 186.203C310.074 186.203 305.739 181.867 305.739 176.508C305.739 171.181 310.074 166.814 315.433 166.814C320.77 166.814 325.127 171.181 325.127 176.508C325.127 181.867 320.77 186.203 315.433 186.203Z" fill="#26534C"/>
<path d="M767.173 229.662C766.751 227.067 766.488 224.441 765.971 221.846C763.967 211.456 760.38 201.171 755.96 191.16C747.152 171.108 735.211 151.899 721.372 133.755C715.232 125.749 708.756 117.932 701.899 110.348C701.794 109.167 702.163 107.964 703.102 107.11C704.673 105.686 707.089 105.823 708.545 107.405C708.545 107.426 708.597 107.458 708.597 107.489C708.597 107.489 710.095 109.251 712.775 112.363C714.062 113.935 715.718 115.759 717.458 118.017C719.23 120.232 721.235 122.732 723.386 125.464C725.475 128.281 727.775 131.308 730.159 134.515C732.384 137.732 734.821 141.076 737.173 144.631C752.437 131.435 762.11 111.962 762.11 90.1899C762.11 50.5063 729.916 18.3228 690.243 18.3228C665.77 18.3228 644.188 30.5591 631.192 49.2511C631.161 49.23 631.108 49.1667 631.055 49.1456C629.452 51.5084 628.112 53.7553 627.005 55.7384C625.465 58.8397 624.252 61.3397 623.661 63.1329C623.27 64.0928 622.859 65.0949 622.49 66.1076C621.952 67.3629 620.507 68.0063 619.22 67.5C617.88 66.9937 617.237 65.5169 617.711 64.1878L617.743 64.1667C617.743 64.1667 618.144 63.1751 618.893 61.2975C619.578 59.3671 620.876 56.7194 622.585 53.3439C623.766 51.308 625.19 48.9557 626.867 46.519C623.629 44.4304 620.422 42.3101 617.1 40.3059C596.477 28.1224 574.368 18.0591 551.256 10.9072C539.61 7.61603 527.859 4.55696 515.855 2.90084C509.874 1.8249 503.872 1.37131 497.859 0.812238C494.905 0.443039 491.815 0.411393 488.745 0.337553L479.621 0C455.37 0.105485 431.182 3.9557 408.007 10.865C384.884 18.0169 362.785 28.0802 342.163 40.2954C338.851 42.2785 335.581 44.3354 332.342 46.424C334.062 48.8819 335.475 51.2447 336.667 53.3017C338.397 56.6772 339.695 59.3249 340.38 61.2553C341.129 63.1329 341.519 64.1245 341.519 64.1245C342.036 65.4641 341.393 66.9304 340.085 67.4683C338.756 68.0063 337.268 67.3312 336.751 66.0232L336.741 66.0021L336.678 65.8122C336.678 65.8122 336.635 65.7384 336.583 65.5802L337.194 65.1477C327.427 37.057 300.718 16.8987 269.283 16.8987C229.589 16.8987 197.405 49.0823 197.405 88.7975C197.405 111.403 206.952 130.812 223.26 143.987C226.456 139.325 229.737 135.042 233.176 130.496C239.789 121.793 246.868 113.302 254.325 105.084C255.201 104.947 256.973 105.517 257.69 106.129C257.711 106.16 257.732 106.181 257.754 106.213C258.545 106.93 258.83 107.954 258.661 108.945C251.34 117.004 244.378 125.285 237.88 133.797C236.72 135.327 235.591 136.878 234.452 138.428L235.148 137.922C233.112 140.707 230.96 143.544 228.84 146.593C226.424 150.127 223.861 153.745 221.477 157.574C218.998 161.319 216.678 165.285 214.357 169.219C213.893 170.053 213.439 170.875 212.954 171.74C209.431 178.112 206.182 184.62 203.281 191.181C198.882 201.192 195.306 211.477 193.281 221.867C192.754 224.462 192.49 227.004 192.078 229.578C191.825 232.152 191.751 235.042 191.593 237.458C191.773 240.053 191.783 242.627 192.078 245.169C192.511 247.743 192.732 250.285 193.323 252.806C197.638 273.048 208.028 291.044 219.283 307.004C230.855 322.88 243.914 336.867 257.458 349.124C284.705 373.576 313.524 391.435 340.37 404.177C353.819 410.475 366.773 415.612 378.988 419.705C391.224 423.66 402.616 426.878 413.059 429.051C414.979 429.483 416.804 429.821 418.64 430.2C418.049 422.563 418.597 414.884 419.062 410.432C407.184 408.502 394.357 404.536 381.287 398.059C374.484 394.662 367.711 390.454 361.319 385.211C354.969 379.958 348.977 373.565 344.821 365.527C342.838 361.487 341.287 357.036 340.876 352.3C340.391 347.584 341.087 342.658 342.87 338.133C346.509 328.977 354.062 322.152 362.173 317.089C370.391 312.057 379.462 308.439 388.808 305.675C398.133 302.859 407.806 300.96 417.564 299.441C437.11 296.519 457.121 295.506 477.131 295.454C497.068 295.559 517.142 296.603 536.667 299.736C546.424 301.319 556.055 303.354 565.359 306.276C574.663 309.167 583.682 312.943 591.804 318.165C599.853 323.365 607.194 330.38 610.739 339.504C612.448 344.029 613.154 348.956 612.69 353.671C612.321 358.407 610.792 362.859 608.808 366.899C604.716 374.989 598.65 381.392 592.258 386.582C585.802 391.751 578.914 395.823 572.036 399.04C558.893 405.253 545.665 408.513 533.977 410.095C534.473 414.726 535.085 423.186 534.325 431.382C538.123 430.717 542.047 429.958 546.182 429.051C556.635 426.878 568.028 423.66 580.264 419.705C592.458 415.612 605.412 410.475 618.882 404.177C645.707 391.435 674.515 373.576 701.783 349.124C715.327 336.857 728.386 322.88 739.958 307.004C751.203 291.023 761.604 273.048 765.939 252.806C766.498 250.285 766.741 247.795 767.163 245.285C767.427 242.711 767.458 240.011 767.648 237.363C767.5 234.968 767.437 232.215 767.173 229.662ZM277.659 33.8713C276.182 33.6287 274.631 33.6076 273.038 33.4388C271.477 33.3544 269.779 33.0063 268.197 33.1751C266.498 33.2489 264.716 33.2489 262.975 33.4388C261.287 33.7025 259.547 33.9135 257.806 34.2194C256.066 34.6519 254.294 35.0949 252.532 35.5591C250.802 36.1709 249.051 36.7616 247.321 37.4367C245.665 38.2384 243.946 38.9873 242.3 39.8418C240.707 40.8333 239.051 41.6878 237.532 42.7637C236.045 43.8819 234.494 44.884 233.102 46.0865C230.285 48.4705 227.743 51.0654 225.507 53.7447C224.462 55.1582 223.344 56.4979 222.416 57.9008C221.541 59.346 220.665 60.7384 219.821 62.0991C219.114 63.5443 218.418 64.9578 217.743 66.2975C217.089 67.6582 216.657 69.0823 216.14 70.3903C215.591 71.6772 215.233 72.9958 214.927 74.2511C214.6 75.4852 214.241 76.635 214.009 77.7637C213.671 80.0422 213.26 81.9937 213.112 83.6287C212.922 86.9198 212.806 88.7975 212.806 88.7975V88.8502C212.796 89.1983 212.5 89.4409 212.173 89.4093C211.836 89.4093 211.593 89.1139 211.614 88.7975C211.614 88.7975 211.688 86.8671 211.825 83.5232C211.952 81.8354 212.321 79.8207 212.627 77.5C212.849 76.3502 213.186 75.1477 213.503 73.8607C213.798 72.5738 214.135 71.2342 214.663 69.8945C215.19 68.5338 215.602 67.0781 216.245 65.6646C216.91 64.2511 217.595 62.8059 218.302 61.2975C219.146 59.8523 220.022 58.4072 220.918 56.8987C221.857 55.4219 222.965 54.0401 224.019 52.5633C226.287 49.7257 228.861 46.9937 231.73 44.4726C233.154 43.2067 234.747 42.1097 236.277 40.9388C237.838 39.8207 239.547 38.8502 241.171 37.8059C242.87 36.8671 244.642 36.0654 246.372 35.211C248.165 34.462 249.969 33.8186 251.762 33.154C253.608 32.6477 255.443 32.1624 257.258 31.6456C259.114 31.2975 260.981 31.0338 262.796 30.7384C264.6 30.4958 266.34 30.4958 268.06 30.3586C269.906 30.1688 271.551 30.4958 273.239 30.5169C274.916 30.654 276.541 30.6751 278.112 30.8966C279.652 31.2131 281.15 31.5401 282.585 31.8354C285.475 32.2679 288.017 33.3122 290.296 34.135C291.435 34.5359 292.49 34.9367 293.481 35.2848C294.368 35.7384 295.18 36.1603 295.918 36.5401C298.861 38.0907 300.549 38.9768 300.549 38.9768C301.393 39.4304 301.709 40.4747 301.266 41.308C300.823 42.1413 299.779 42.4578 298.946 42.0359L298.924 42.0042C298.924 42.0042 297.247 41.097 294.346 39.4937C293.608 39.0928 292.806 38.6603 291.931 38.1751C291.034 37.827 290.053 37.4789 289.03 37.0781C286.952 36.2975 284.652 35.2848 281.889 34.8312C280.528 34.5148 279.114 34.1878 277.659 33.8713ZM327.448 291.065C304.768 291.065 286.33 258.122 286.33 217.669C286.33 177.184 304.768 144.272 327.448 144.272C350.127 144.272 368.576 177.184 368.576 217.669C368.576 258.133 350.127 291.065 327.448 291.065ZM631.794 291.065C609.146 291.065 590.697 258.122 590.697 217.669C590.697 177.184 609.146 144.272 631.794 144.272C654.494 144.272 672.912 177.184 672.912 217.669C672.912 258.133 654.494 291.065 631.794 291.065ZM701.709 35.6118C699.969 35.3165 698.228 35.1055 696.541 34.8312C694.8 34.6413 693.007 34.673 691.298 34.5675C689.716 34.4304 688.028 34.789 686.477 34.8312C684.874 34.9894 683.313 35.0211 681.846 35.2637C680.37 35.6118 678.988 35.9283 677.616 36.2342C674.863 36.7089 672.564 37.711 670.465 38.481C669.452 38.8819 668.481 39.2616 667.585 39.5781C666.699 40.0633 665.897 40.5169 665.169 40.8966C662.226 42.5 660.549 43.4388 660.549 43.4388C659.737 43.8819 658.671 43.5654 658.249 42.7321C657.764 41.8987 658.081 40.8544 658.914 40.4008H658.935C658.935 40.4008 660.623 39.5253 663.566 37.9747C664.283 37.5738 665.116 37.173 666.003 36.6878C666.994 36.3397 668.028 35.9388 669.188 35.538C671.467 34.7046 674.009 33.692 676.899 33.2384C678.313 32.943 679.811 32.6266 681.372 32.3312C682.922 32.0992 684.589 32.0675 686.245 31.962C687.933 31.9093 689.589 31.5823 691.435 31.7721C693.154 31.9093 694.863 31.9304 696.688 32.1519C698.503 32.4473 700.38 32.711 702.226 33.0907C704.019 33.5759 705.865 34.0506 707.722 34.5675C709.484 35.2637 711.308 35.9072 713.133 36.6245C714.842 37.5105 716.614 38.3122 718.323 39.2511C719.927 40.2954 721.635 41.2342 723.197 42.3523C724.726 43.5548 726.33 44.6308 727.754 45.9072C730.612 48.4283 733.218 51.1287 735.465 53.9662C736.541 55.443 737.627 56.8354 738.566 58.3017C739.484 59.7996 740.338 61.2764 741.192 62.7004C741.889 64.1983 742.585 65.6751 743.228 67.0675C743.872 68.481 744.304 69.9578 744.821 71.2975C745.359 72.6582 745.686 73.9979 745.971 75.2848C746.266 76.5401 746.635 77.7426 746.857 78.8924C747.152 81.2236 747.522 83.2384 747.659 84.9156C747.796 88.2911 747.88 90.1899 747.88 90.1899C747.88 90.538 747.616 90.8122 747.289 90.8333C746.962 90.8333 746.688 90.5907 746.667 90.2742V90.1899C746.667 90.1899 746.53 88.3122 746.372 85.0527C746.213 83.3966 745.781 81.4346 745.465 79.1878C745.243 78.0696 744.874 76.8882 744.557 75.654C744.23 74.3987 743.882 73.1118 743.323 71.8038C742.806 70.4852 742.384 69.0928 741.72 67.7321C741.076 66.3713 740.38 64.9789 739.663 63.5337C738.83 62.173 737.943 60.7489 737.068 59.3038C736.129 57.9114 735.032 56.5717 733.956 55.1793C731.73 52.4789 729.188 49.884 726.372 47.5211C724.979 46.3186 723.408 45.3059 721.962 44.1772C720.412 43.1329 718.766 42.2468 717.195 41.2658C715.538 40.4008 713.819 39.6624 712.152 38.8502C710.443 38.1857 708.671 37.5949 706.962 36.9726C705.211 36.4979 703.45 36.0654 701.709 35.6118Z" fill="#26534C"/>
<path d="M636.076 152.437C618.671 152.437 604.526 179.536 604.526 212.954C604.526 246.371 618.671 273.47 636.076 273.47C653.524 273.47 667.669 246.371 667.669 212.954C667.669 179.536 653.534 152.437 636.076 152.437ZM643.84 186.203C638.492 186.203 634.146 181.867 634.146 176.508C634.146 171.181 638.492 166.814 643.84 166.814C649.199 166.814 653.534 171.181 653.534 176.508C653.534 181.867 649.188 186.203 643.84 186.203Z" fill="#26534C"/>
<path d="M221.498 157.563C223.882 153.734 226.456 150.116 228.861 146.582C231.309 143.049 233.84 139.779 236.14 136.593C238.576 133.492 240.865 130.57 242.975 127.859C245.18 125.232 247.205 122.816 248.988 120.686C250.749 118.513 252.427 116.772 253.745 115.243C256.403 112.268 257.933 110.559 257.933 110.559L257.996 110.475C258.007 110.454 258.007 110.454 258.017 110.454C258.397 110 258.576 109.462 258.661 108.924C251.34 116.983 244.378 125.264 237.88 133.776C228.576 145.96 220.169 158.629 212.954 171.719C213.439 170.854 213.893 170.032 214.357 169.198C216.699 165.274 219.019 161.308 221.498 157.563Z" fill="#26534C"/>
</svg>
