<svg width="178" height="296" viewBox="0 0 178 296" fill="none" xmlns="http://www.w3.org/2000/svg">
<path d="M176.782 76.435C171.231 32.8618 133.736 0 89.5624 0C86.0964 0 82.5871 0.206824 79.1278 0.620473C46.7264 4.47341 23.3052 21.0994 9.51798 50.0382C-4.81963 80.1445 -2.95154 111.212 15.0722 142.372C18.3781 148.086 22.191 153.614 25.8771 158.955C27.932 161.934 29.9903 164.909 31.9718 167.932C40.0213 180.218 44.1678 193.498 44.3045 207.408C44.3546 212.742 47.2301 217.259 51.7736 219.418C48.1341 221.252 45.6055 224.985 45.6055 229.332C45.6055 233.405 47.8673 237.124 51.3266 239.059C47.8673 240.997 45.6055 244.713 45.6055 248.787C45.6055 252.853 47.8706 256.569 51.3299 258.514C47.8673 260.449 45.6055 264.165 45.6055 268.235C45.6055 274.383 50.6027 279.383 56.744 279.383H62.5918C67.0186 288.797 77.7768 295.082 89.6058 295.082C101.435 295.082 112.196 288.797 116.62 279.383H123.799C129.943 279.383 134.94 274.383 134.94 268.235C134.94 264.165 132.675 260.449 129.213 258.514C132.675 256.569 134.94 252.853 134.94 248.787C134.94 244.713 132.675 240.997 129.216 239.059C132.675 237.124 134.94 233.408 134.94 229.332C134.94 224.471 131.791 220.368 127.438 218.854C131.254 216.549 133.773 212.476 133.8 208.099C133.87 193.715 138.109 180.067 146.412 167.541C148.681 164.119 150.989 160.719 153.298 157.32C155.9 153.491 158.505 149.654 161.05 145.785C174.714 125.052 180.008 101.718 176.782 76.435ZM132.942 229.332C132.942 233.365 130.243 236.968 126.377 238.102C125.95 238.225 125.657 238.615 125.657 239.059C125.657 239.503 125.95 239.893 126.377 240.017C130.24 241.151 132.942 244.757 132.942 248.787C132.942 252.81 130.24 256.416 126.374 257.56C125.95 257.683 125.657 258.074 125.657 258.517C125.657 258.964 125.95 259.351 126.377 259.475C130.243 260.609 132.942 264.208 132.942 268.235C132.942 273.282 128.842 277.382 123.802 277.382H115.976C115.579 277.382 115.215 277.619 115.062 277.986C111.132 287.016 100.904 293.08 89.6091 293.08C78.3138 293.08 68.086 287.016 64.1564 277.986C63.9996 277.622 63.6393 277.382 63.2423 277.382H56.7507C51.7102 277.382 47.6071 273.282 47.6071 268.235C47.6071 264.208 50.3091 260.609 54.1721 259.475C54.5957 259.351 54.8893 258.961 54.8893 258.517C54.8893 258.074 54.5991 257.683 54.1754 257.56C50.3091 256.416 47.6071 252.806 47.6071 248.787C47.6071 244.757 50.3091 241.154 54.1754 240.017C54.5991 239.893 54.8926 239.503 54.8926 239.059C54.8926 238.615 54.6024 238.225 54.1754 238.102C50.3091 236.968 47.6104 233.361 47.6104 229.332C47.6104 224.291 51.7102 220.195 56.754 220.195H123.812C128.839 220.195 132.942 224.295 132.942 229.332ZM86.1498 148.533C80.9992 141.555 71.6854 137.492 64.2731 133.622C44.8216 123.468 59.0658 112.156 74.144 107.585C73.8905 108.143 73.667 108.703 73.5269 109.27C70.4612 121.486 86.3133 123.548 93.4854 117.046C104.07 107.449 90.1362 103.019 81.4596 103.095C85.109 99.596 89.8226 96.7972 94.3361 94.6389C102.339 90.816 107.112 84.3911 107.443 75.6377C107.446 75.5944 107.433 75.5543 107.433 75.5076C110.408 75.4876 113.377 75.7178 116.353 76.2749C128.796 78.2164 135.227 95.0793 122.281 102.058C118.708 103.986 115.599 105.647 113.014 108.786C110.885 111.368 111.739 116.542 113.808 118.914C115.903 121.313 117.804 122.784 120.876 123.961C133.256 128.715 114.775 140.677 111.246 143.373C105.234 147.963 101.395 154.942 101.675 162.704C102.352 181.569 97.8187 199.315 97.9655 218.19H74.9479C78.6074 201.39 85.0924 185.995 90.4097 169.75C92.885 162.194 90.6933 154.688 86.1498 148.533ZM89.8793 105.724C93.9158 111.375 93.5088 115.351 88.6584 117.646C79.9818 113.764 76.5425 110.051 78.2972 106.505C82.5971 105.567 86.7203 105.237 89.8793 105.724ZM159.386 144.687C156.84 148.55 154.245 152.373 151.646 156.196C149.335 159.602 147.02 163.008 144.748 166.44C136.228 179.297 131.875 193.311 131.801 208.089C131.775 212.539 128.679 216.669 124.249 218.19H123.799H100.457C100.344 207.028 101.221 196.57 103.927 185.682C106.252 176.311 103.603 166.897 104.904 157.333C106.679 144.23 128.963 140.824 129.526 128.775C129.79 123.164 123.578 122.484 119.375 120.539C103.493 113.183 125.38 103.306 128.479 101.307C131.995 99.0423 133.296 95.3995 134.113 91.5599C135.688 84.1776 126.441 78.143 121.253 75.3275C117.097 73.0725 112.28 72.3919 107.239 72.4486C104.687 55.439 76.8494 46.4888 63.5993 54.0079C50.9663 61.1734 47.8005 75.9613 65.5374 77.5992C77.5166 78.7068 89.2555 77.5225 101.135 75.9413C101.885 75.8346 102.629 75.7812 103.38 75.7111C103.626 82.4129 100.154 89.0947 91.3304 93.3079C87.1673 95.2961 80.6656 99.1724 76.7093 103.726C67.7825 106.048 41.4657 116.302 50.8395 127.384C60.3101 138.582 76.806 140.044 85.9663 152.456C93.1018 162.12 85.8496 175.08 82.2135 184.524C78.0703 195.286 74.9646 206.354 72.5194 217.609C72.4727 217.82 72.4827 218.01 72.5227 218.187H56.7407H54.0653C49.3217 216.679 46.3494 212.552 46.2961 207.385C46.1559 193.087 41.8994 179.444 33.6397 166.834C31.6482 163.798 29.5866 160.803 27.5217 157.814C23.8556 152.503 20.066 147.012 16.8002 141.368C-0.873283 110.811 -2.71803 80.3714 11.3194 50.8955C24.793 22.6139 47.6838 6.36486 79.358 2.59865C82.7406 2.19501 86.1732 1.99152 89.5591 1.99152C132.729 1.99152 169.373 34.0994 174.801 76.6819C177.963 101.484 172.776 124.362 159.386 144.687ZM103.016 72.6555C95.0533 73.306 86.837 75.2374 79.9818 75.4776C77.6467 75.5677 75.3115 75.601 72.9731 75.581C71.7221 75.5377 70.4745 75.4943 69.2236 75.4476C55.3496 75.7011 57.3879 68.4289 75.3382 53.6276C89.2655 51.8796 100.804 61.7905 103.016 72.6555Z" fill="#1C3F3A"/>
</svg>
