<svg width="2000" height="2000" viewBox="0 0 2000 2000" fill="none" xmlns="http://www.w3.org/2000/svg">
<path d="M1081.28 1765.62H918.725C897.15 1765.62 879.663 1783.12 879.663 1804.69C879.663 1826.26 897.15 1843.75 918.725 1843.75H1081.28C1102.85 1843.75 1120.34 1826.26 1120.34 1804.69C1120.34 1783.12 1102.85 1765.62 1081.28 1765.62Z" fill="#9F9B8D"/>
<path d="M1781.25 312.504H1546.88V227.656C1592.34 211.531 1625 168.113 1625 117.188C1625 52.5703 1572.43 0 1507.81 0H492.188C427.571 0 375 52.5703 375 117.191C375 168.113 407.66 211.531 453.125 227.656V312.504H218.75C197.176 312.504 179.688 329.996 179.688 351.566V625.006C179.688 797.319 319.875 937.506 492.188 937.506H525.215C532.723 950.588 540.746 963.444 549.383 975.975C604.676 1056.23 679.3 1119.69 766.456 1161.1C765.925 1165.6 765.625 1170.18 765.625 1174.81C765.625 1229.54 803.35 1275.62 854.15 1288.44C807.212 1444.83 723.806 1609.38 625 1609.38H531.25C511.551 1609.38 494.934 1624.04 492.488 1643.59L453.426 1956.09C452.035 1967.21 455.488 1978.39 462.902 1986.79C470.316 1995.19 480.984 2000 492.188 2000H1507.81C1519.02 2000 1529.68 1995.19 1537.1 1986.79C1544.51 1978.39 1547.96 1967.21 1546.57 1956.09L1507.51 1643.59C1505.07 1624.04 1488.46 1609.38 1468.75 1609.38H1375C1315.2 1609.38 1264.67 1546.58 1232.82 1493.9C1191.88 1426.21 1163.29 1346.46 1145.86 1288.43C1196.66 1275.61 1234.38 1229.54 1234.38 1174.81C1234.38 1170.17 1234.08 1165.6 1233.54 1161.1C1320.71 1119.68 1395.35 1056.21 1450.64 975.937C1459.27 963.412 1467.29 950.581 1474.79 937.506H1507.81C1680.12 937.506 1820.31 797.319 1820.31 625.006V351.566C1820.31 329.996 1802.83 312.504 1781.25 312.504ZM257.812 625.006V390.629H453.125V666.994C453.125 733.325 465.156 798.225 488.269 859.281C360.84 857.175 257.812 752.925 257.812 625.006ZM1463.56 1921.88H536.438L565.734 1687.5H1434.26L1463.56 1921.88ZM1221.01 1609.38H778.994C797.975 1588.57 816.281 1563.65 833.862 1534.62C883.787 1452.16 916.569 1355.01 934.494 1291.99H1065.51C1083.45 1355.07 1116.16 1451.98 1165.96 1534.33C1183.6 1563.48 1201.96 1588.5 1221.01 1609.38ZM1117.19 1213.87H882.812C861.275 1213.87 843.75 1196.35 843.75 1174.81C843.75 1153.27 861.275 1135.74 882.812 1135.74H1117.19C1138.72 1135.74 1156.25 1153.27 1156.25 1174.81C1156.25 1196.35 1138.72 1213.87 1117.19 1213.87ZM1199.01 1091.03C1177.88 1070.38 1149 1057.62 1117.19 1057.62H882.812C851 1057.62 822.125 1070.38 800.987 1091.03C636.294 1013.48 531.25 849.85 531.25 666.994V234.375H824.206C845.781 234.375 863.269 216.883 863.269 195.312C863.269 173.742 845.781 156.25 824.206 156.25H492.188C470.649 156.25 453.125 138.726 453.125 117.188C453.125 95.6488 470.649 78.125 492.188 78.125H1507.81C1529.35 78.125 1546.88 95.6487 1546.88 117.191C1546.88 138.731 1529.35 156.25 1507.81 156.25H1175.77C1154.19 156.25 1136.71 173.742 1136.71 195.312C1136.71 216.883 1154.19 234.375 1175.77 234.375H1468.75V666.994C1468.75 849.837 1363.7 1013.48 1199.01 1091.03ZM1742.19 625.006C1742.19 752.925 1639.16 857.175 1511.73 859.281C1534.84 798.225 1546.88 733.325 1546.88 666.994V390.629H1742.19V625.006Z" fill="#9F9B8D"/>
<path d="M1199.57 509.365L1111.96 493.846L1068.45 413.81C1068.45 413.806 1068.45 413.799 1068.44 413.794C1061.14 400.377 1050.15 389.482 1036.65 382.287C1018.27 372.486 997.181 370.431 977.256 376.49C957.331 382.556 940.963 396.017 931.15 414.408L889.325 492.927L801.463 509.259C785.719 511.787 771.325 518.966 759.788 530.056C744.769 544.506 736.275 563.935 735.869 584.775C735.463 605.611 743.2 625.362 757.681 640.406L819.475 704.5L808.138 790.937C805.1 807.437 807.369 824.094 814.738 839.231C823.869 857.987 839.763 872.062 859.481 878.862C867.831 881.744 876.444 883.175 885.025 883.175C896.706 883.175 908.331 880.519 919.144 875.262L999.088 836.344L1081.36 875.544C1095.1 882.1 1110.42 884.45 1125.66 882.337C1146.31 879.487 1164.61 868.756 1177.19 852.137C1189.77 835.519 1195.13 814.994 1192.26 794.294L1179.94 706.137L1240.36 642.412C1252.3 630.875 1260.11 616.138 1262.98 599.712C1270.38 557.291 1241.89 516.756 1199.57 509.365ZM1184.35 587.931L1110.3 666.031C1102.12 674.656 1098.32 686.544 1099.96 698.312L1114.98 805.019L1015.69 757.725C1004.96 752.612 992.488 752.662 981.794 757.869L884.975 805.062C885.163 804.137 885.319 803.206 885.444 802.269L899.381 696.012C900.925 684.225 897.019 672.375 888.769 663.825L813.856 586.392C814.294 586.326 814.738 586.252 815.175 586.169L922.081 566.302C933.769 564.127 943.831 556.756 949.419 546.263L999.888 451.275L1052.3 547.693C1057.98 558.134 1068.1 565.427 1079.81 567.497L1186.04 586.244C1185.46 586.787 1184.89 587.349 1184.35 587.931Z" fill="#9F9B8D"/>
<path d="M1000 234.375C1021.58 234.375 1039.06 216.883 1039.06 195.312C1039.06 173.742 1021.58 156.25 1000 156.25H999.975C978.4 156.25 960.925 173.742 960.925 195.312C960.925 216.883 978.425 234.375 1000 234.375Z" fill="#9F9B8D"/>
</svg>
