<svg width="2000" height="652" viewBox="0 0 2000 652" fill="none" xmlns="http://www.w3.org/2000/svg">
<path d="M389.224 168.288C377.002 72.3523 294.449 0 197.191 0C189.56 0 181.833 0.455368 174.217 1.36611C102.878 9.84918 51.3114 46.4549 20.9559 110.17C-10.6114 176.455 -6.49845 244.857 33.1847 313.463C40.4634 326.043 48.8583 338.214 56.974 349.974C61.4983 356.533 66.0301 363.083 70.3928 369.739C88.1155 396.789 97.245 426.028 97.5459 456.654C97.6562 468.397 103.987 478.343 113.991 483.096C105.978 487.134 100.41 495.353 100.41 504.924C100.41 513.892 105.39 522.08 113.007 526.34C105.39 530.607 100.41 538.789 100.41 547.758C100.41 556.71 105.397 564.892 113.014 569.174C105.39 573.435 100.41 581.616 100.41 590.577C100.41 604.113 111.413 615.122 124.934 615.122H137.809C147.556 635.849 171.242 649.687 197.287 649.687C223.331 649.687 247.024 635.849 256.764 615.122H272.57C286.098 615.122 297.1 604.113 297.1 590.577C297.1 581.616 292.113 573.435 284.49 569.174C292.113 564.892 297.1 556.71 297.1 547.758C297.1 538.789 292.113 530.607 284.497 526.34C292.113 522.08 297.1 513.898 297.1 504.924C297.1 494.221 290.166 485.188 280.582 481.854C288.984 476.779 294.53 467.812 294.59 458.175C294.744 426.505 304.077 396.456 322.358 368.878C327.353 361.343 332.435 353.858 337.519 346.374C343.248 337.944 348.983 329.496 354.586 320.977C384.671 275.329 396.326 223.954 389.224 168.288ZM292.701 504.924C292.701 513.803 286.758 521.736 278.246 524.233C277.306 524.504 276.661 525.362 276.661 526.34C276.661 527.318 277.306 528.176 278.246 528.449C286.751 530.946 292.701 538.885 292.701 547.758C292.701 556.616 286.751 564.555 278.24 567.074C277.306 567.345 276.661 568.206 276.661 569.181C276.661 570.165 277.306 571.017 278.246 571.29C286.758 573.787 292.701 581.711 292.701 590.577C292.701 601.689 283.673 610.716 272.577 610.716H255.346C254.472 610.716 253.671 611.238 253.334 612.046C244.681 631.928 222.162 645.279 197.294 645.279C172.425 645.279 149.906 631.928 141.254 612.046C140.909 611.245 140.116 610.716 139.242 610.716H124.949C113.851 610.716 104.817 601.689 104.817 590.577C104.817 581.711 110.766 573.787 119.272 571.29C120.204 571.017 120.851 570.159 120.851 569.181C120.851 568.206 120.212 567.345 119.279 567.074C110.766 564.555 104.817 556.607 104.817 547.758C104.817 538.885 110.766 530.953 119.279 528.449C120.212 528.176 120.858 527.318 120.858 526.34C120.858 525.362 120.219 524.504 119.279 524.233C110.766 521.736 104.825 513.795 104.825 504.924C104.825 493.825 113.851 484.807 124.956 484.807H272.599C283.667 484.807 292.701 493.834 292.701 504.924ZM189.677 327.027C178.337 311.664 157.831 302.718 141.511 294.198C98.6844 271.841 130.046 246.936 163.244 236.872C162.686 238.1 162.194 239.333 161.885 240.581C155.136 267.478 190.037 272.018 205.828 257.702C229.133 236.572 198.454 226.819 179.351 226.986C187.386 219.282 197.764 213.12 207.701 208.368C225.321 199.951 235.83 185.805 236.559 166.533C236.566 166.437 236.537 166.349 236.537 166.246C243.087 166.202 249.624 166.709 256.176 167.936C283.572 172.21 297.731 209.338 269.228 224.703C261.361 228.948 254.516 232.605 248.825 239.516C244.137 245.201 246.018 256.592 250.573 261.815C255.185 267.097 259.371 270.335 266.135 272.927C293.392 283.394 252.702 309.731 244.932 315.667C231.695 325.772 223.243 341.138 223.859 358.228C225.35 399.763 215.369 438.835 215.692 480.392H165.014C173.071 443.404 187.349 409.508 199.056 373.741C204.506 357.105 199.681 340.579 189.677 327.027ZM197.889 232.774C206.776 245.216 205.88 253.97 195.201 259.023C176.097 250.476 168.525 242.301 172.388 234.494C181.855 232.429 190.933 231.702 197.889 232.774ZM350.923 318.56C345.317 327.065 339.604 335.482 333.881 343.899C328.793 351.398 323.696 358.897 318.694 366.454C299.935 394.761 290.351 425.616 290.188 458.153C290.131 467.951 283.315 477.044 273.561 480.392H272.57H221.178C220.929 455.817 222.86 432.791 228.818 408.819C233.937 388.187 228.104 367.46 230.969 346.403C234.877 317.553 283.94 310.054 285.179 283.526C285.761 271.172 272.084 269.675 262.83 265.393C227.862 249.197 276.051 227.45 282.874 223.049C290.616 218.063 293.48 210.043 295.279 201.589C298.746 185.335 278.387 172.049 266.965 165.85C257.814 160.885 247.209 159.386 236.11 159.511C230.491 122.061 169.201 102.355 140.028 118.91C112.213 134.686 105.243 167.245 144.295 170.851C170.67 173.29 196.515 170.683 222.671 167.201C224.322 166.966 225.96 166.849 227.613 166.694C228.155 181.45 220.511 196.161 201.084 205.437C191.918 209.815 177.603 218.349 168.892 228.375C149.238 233.488 91.2957 256.064 111.934 280.463C132.786 305.118 169.105 308.337 189.273 335.665C204.984 356.942 189.016 385.476 181.011 406.269C171.889 429.964 165.051 454.333 159.667 479.113C159.564 479.578 159.586 479.996 159.674 480.386H124.927H119.036C108.592 477.066 102.048 467.979 101.931 456.603C101.622 425.123 92.2506 395.085 74.0651 367.321C69.6804 360.637 65.1413 354.043 60.595 347.462C52.5233 335.768 44.1796 323.679 36.9893 311.252C-1.92271 243.974 -5.98432 176.955 24.9221 112.057C54.5872 49.7894 104.986 14.0136 174.724 5.72149C182.171 4.83279 189.729 4.38476 197.184 4.38476C292.232 4.38476 372.911 75.0772 384.862 168.832C391.824 223.439 380.404 273.81 350.923 318.56ZM226.812 159.967C209.28 161.399 191.19 165.651 176.097 166.18C170.956 166.379 165.815 166.452 160.666 166.408C157.912 166.313 155.165 166.217 152.411 166.114C121.864 166.672 126.352 150.661 165.873 118.073C196.537 114.224 221.942 136.045 226.812 159.967Z" fill="#1C3F3A"/>
<path d="M603.856 466.145C591.152 452.772 597.169 434.72 601.181 418.672C605.862 400.62 613.885 383.235 617.229 365.181C621.241 345.793 611.212 338.437 592.488 345.793C563.069 356.489 537.661 374.543 515.596 396.608C496.205 415.999 478.153 435.389 458.763 454.111C454.082 458.791 449.401 468.82 440.042 463.47C434.024 460.128 436.03 451.435 437.366 445.418C443.384 407.306 462.774 375.212 478.153 340.443C479.49 337.1 483.501 335.095 485.507 337.1C487.513 340.443 488.851 345.791 487.513 349.135C479.49 368.525 470.13 387.916 462.105 407.306C458.763 415.329 454.751 424.022 452.745 432.045C452.076 435.389 450.74 444.749 458.763 436.726C492.194 405.301 520.276 369.195 561.733 347.129C579.117 337.767 597.838 317.71 618.565 333.756C640.631 350.471 628.594 374.543 622.577 395.27C618.565 410.649 612.548 424.691 609.873 440.068C606.531 456.786 612.548 464.809 631.939 456.786C664.033 442.743 690.11 420.01 716.854 399.281C740.256 380.56 758.311 365.181 781.713 346.46C785.055 343.118 791.072 337.767 795.084 343.118C797.759 346.46 791.741 349.804 788.399 352.477C748.28 387.247 712.843 418.005 669.381 448.76C662.694 453.441 656.01 457.453 649.323 460.128C634.614 466.814 619.235 481.524 603.856 466.145ZM799.765 466.814C755.636 466.814 737.581 441.407 750.285 399.281C758.978 373.206 773.687 351.81 795.753 335.762C811.801 324.396 829.853 323.058 845.232 335.095C857.267 344.454 853.255 369.862 837.876 385.241C821.161 401.956 801.103 411.985 776.362 410.649C760.316 409.312 754.299 420.677 762.322 435.389C771.014 451.435 795.084 460.128 818.486 453.441C857.267 442.074 890.7 420.01 919.45 391.927C936.835 375.212 950.875 364.514 968.26 347.129C970.935 344.454 974.946 339.773 978.958 345.123C980.964 347.798 979.627 351.141 977.621 353.816C932.154 400.62 890.7 442.074 825.842 463.47C817.149 466.145 808.457 466.145 799.765 466.814ZM779.707 397.945C797.089 405.968 839.215 377.218 839.882 353.816C839.215 343.785 831.19 338.437 817.819 340.443C804.445 341.779 774.357 371.868 772.351 385.241C771.015 391.927 774.357 395.939 779.707 397.945ZM1008.38 471.495C968.929 474.168 956.225 462.134 954.219 423.353C952.881 388.583 966.923 357.827 979.627 327.739C993.667 294.975 1008.38 262.88 1023.09 230.786C1026.43 222.763 1035.79 208.722 1031.11 206.048C1029.77 203.373 1007.04 206.716 999.018 206.716C979.627 208.722 942.852 210.728 930.817 210.728C926.806 210.728 920.788 210.728 921.456 204.042C922.125 198.024 928.142 198.693 931.487 198.693C946.863 198.024 983.639 196.687 1009.72 194.681C1047.16 192.006 1042.48 189.332 1059.19 151.888C1067.89 130.492 1079.92 110.433 1090.62 89.7054C1093.3 85.025 1096.64 78.3388 1102.65 81.6819C1109.34 85.025 1103.99 91.0427 1101.99 95.7231C1090.62 118.457 1079.25 141.19 1068.55 164.592C1056.52 191.337 1054.51 191.337 1069.22 190.669C1086.61 190.669 1096.64 189.332 1103.32 189.332C1113.35 189.332 1125.39 186.657 1137.42 186.657C1152.8 185.988 1157.48 182.645 1158.15 192.006C1158.15 198.024 1149.46 196.687 1134.75 198.024C1119.37 199.361 1093.96 202.036 1068.55 203.373C1051.84 203.373 1049.83 206.047 1045.15 217.414C1020.41 275.584 988.989 330.414 971.604 391.258C965.587 413.324 958.9 437.395 978.958 453.441C1000.35 470.157 1023.09 458.791 1042.48 444.749C1077.25 420.01 1109.34 383.235 1137.42 351.81C1141.44 347.129 1146.12 337.767 1152.13 341.779C1160.16 348.466 1150.13 353.146 1144.78 362.508C1112.69 398.614 1083.26 431.376 1044.49 457.453C1033.79 464.809 1022.42 470.826 1008.38 471.495ZM1063.21 646.008C1043.82 650.019 1021.08 658.042 1008.38 637.985C995.006 616.588 1016.4 603.884 1029.77 592.517C1071.9 557.08 1120.04 532.34 1168.18 506.263C1188.91 494.897 1199.61 463.47 1190.91 441.407C1188.24 434.051 1184.23 427.364 1176.87 423.353C1151.46 407.974 1152.13 408.643 1172.19 388.583C1181.55 379.893 1190.91 369.862 1198.94 359.164C1202.95 353.816 1204.96 346.46 1200.94 340.443C1195.6 332.419 1186.9 334.425 1179.55 336.431C1174.2 338.437 1169.52 342.448 1164.84 343.785C1157.48 345.123 1151.46 362.508 1144.11 349.804C1140.1 342.448 1153.47 336.431 1160.16 331.75C1168.85 325.733 1178.21 323.058 1188.24 321.052C1198.94 319.046 1207.63 322.388 1214.32 330.414C1221.67 339.773 1219 348.466 1214.32 358.497C1207.63 373.206 1194.93 382.566 1184.9 393.933C1181.55 398.614 1171.52 404.631 1179.55 409.312C1212.31 425.358 1205.62 454.778 1205.62 482.193C1205.62 484.199 1205.62 484.866 1207.63 483.53C1246.41 467.482 1323.97 393.264 1364.76 352.477C1372.11 345.123 1377.46 341.112 1380.81 343.785C1383.48 345.79 1382.14 351.81 1374.79 359.833C1333.33 404.631 1253.1 472.832 1225.01 490.216C1205.62 499.576 1192.92 512.949 1184.23 533.676C1163.5 581.15 1128.06 615.919 1081.26 637.985C1075.91 641.327 1069.89 644.669 1063.21 646.008ZM1039.14 637.985C1080.59 637.315 1161.5 571.121 1170.19 531.67C1170.85 528.328 1173.53 524.986 1169.52 523.647C1166.84 522.311 1162.83 523.647 1160.16 524.986C1113.35 549.055 1067.22 574.463 1027.77 610.569C1022.42 615.919 1016.4 621.936 1019.74 630.629C1023.09 640.657 1032.45 637.315 1039.14 637.985ZM1416.91 280.265C1409.56 280.935 1404.88 276.254 1403.54 268.9C1400.87 252.182 1416.24 249.509 1425.6 244.829C1432.29 241.484 1436.97 248.171 1438.98 255.527C1434.97 266.225 1430.95 278.259 1416.91 280.265ZM1385.49 464.809C1360.75 472.162 1340.69 455.447 1342.69 428.703C1350.05 400.62 1363.42 372.537 1376.79 344.454C1379.47 339.106 1384.15 334.425 1389.5 338.437C1396.19 343.118 1390.17 348.466 1388.16 353.146C1379.47 373.206 1369.44 393.264 1362.08 413.993C1358.07 426.028 1352.72 440.068 1366.1 451.435C1374.79 458.122 1389.5 451.435 1400.2 447.424C1442.32 430.039 1475.75 381.229 1524.56 345.123C1527.9 343.118 1530.58 337.767 1534.59 343.118C1537.93 347.129 1533.92 350.471 1530.58 352.477C1465.72 399.281 1453.69 445.418 1385.49 464.809ZM1590.76 462.803C1536.6 487.541 1503.83 458.122 1509.85 409.312C1511.86 393.264 1515.2 375.212 1521.89 359.164C1570.03 244.159 1632.21 138.516 1721.14 50.2561C1739.19 32.2032 1759.25 16.156 1783.32 6.12647C1823.44 -9.92071 1845.5 6.12647 1838.82 47.5817C1831.46 95.7231 1803.38 133.835 1772.63 168.604C1712.45 235.467 1641.57 288.288 1560 325.733C1551.98 329.744 1547.3 334.425 1543.95 341.779C1535.26 361.839 1527.9 382.566 1524.56 404.631C1518.55 450.766 1543.95 470.157 1586.08 452.105C1627.53 434.051 1660.96 403.962 1695.06 376.548L1735.85 343.118C1737.86 341.779 1743.2 339.773 1744.54 341.112C1749.89 345.123 1745.88 349.135 1742.54 351.81C1691.72 390.589 1650.27 435.389 1590.76 462.803ZM1568.02 310.354C1631.54 281.604 1685.03 238.811 1735.85 192.675C1774.63 156.569 1806.73 113.108 1824.11 61.6229C1829.46 47.5817 1833.47 29.5285 1820.77 17.4932C1806.06 4.12058 1792.01 18.8305 1778.64 23.5108C1771.29 26.1855 1764.6 31.5345 1758.58 36.2149C1672.33 110.433 1608.81 202.704 1562.01 305.673C1558.66 311.023 1562.67 313.029 1568.02 310.354ZM1997.28 343.785C2003.97 349.135 1996.62 353.816 1993.27 356.489C1957.17 391.927 1925.74 424.022 1882.95 450.766C1874.93 455.447 1867.57 460.128 1859.55 463.47C1844.17 469.49 1828.79 470.157 1815.42 459.459C1801.38 448.093 1802.05 432.045 1805.39 416.666C1808.06 405.301 1812.07 393.933 1815.42 383.235C1786 397.275 1768.61 427.364 1741.2 444.749C1731.84 450.766 1723.15 457.453 1713.12 462.134C1701.08 467.482 1689.71 470.157 1679.02 460.797C1668.99 451.435 1668.32 438.732 1670.99 426.697C1681.02 379.224 1737.86 332.419 1787.34 331.081C1796.69 331.081 1806.73 334.425 1815.42 339.773C1819.43 342.448 1822.77 349.135 1828.79 345.793C1836.15 341.779 1842.16 329.075 1850.19 342.448C1856.2 351.141 1847.51 358.497 1844.17 366.52C1836.15 383.235 1825.45 399.281 1821.44 418.005C1818.76 430.039 1814.75 441.407 1826.78 450.766C1838.82 459.458 1849.52 455.447 1860.88 449.43C1884.96 438.062 1906.35 422.016 1925.74 403.295C1945.8 383.904 1963.85 369.862 1983.91 350.471C1987.26 346.46 1991.94 339.773 1997.28 343.785ZM1801.38 373.873C1806.73 368.525 1812.74 362.508 1809.4 353.816C1804.72 342.448 1794.02 347.798 1787.34 346.46C1746.55 346.46 1703.09 379.893 1687.71 422.016C1684.37 432.714 1678.35 443.412 1689.71 452.105C1699.74 460.797 1709.1 452.772 1716.46 448.093C1749.22 428.703 1774.63 400.62 1801.38 373.873Z" fill="#1C3F3A"/>
</svg>
