<svg width="3000" height="3000" viewBox="0 0 3000 3000" fill="none" xmlns="http://www.w3.org/2000/svg">
<path d="M1500 0L1630.24 761.395L2013.03 90.4611L1875 850.481L2464.19 350.932L2074.53 1017.91L2799.05 750L2204.77 1243.49L2977.21 1239.53L2250 1500L2977.21 1760.47L2204.77 1756.51L2799.05 2250L2074.53 1982.09L2464.19 2649.07L1875 2149.52L2013.03 2909.54L1630.24 2238.6L1500 3000L1369.76 2238.6L986.971 2909.54L1125 2149.52L535.819 2649.07L925.466 1982.09L200.962 2250L795.23 1756.51L22.7883 1760.47L750 1500L22.7883 1239.53L795.23 1243.49L200.962 750L925.466 1017.91L535.819 350.932L1125 850.481L986.971 90.4611L1369.76 761.395L1500 0Z" fill="#ECE8D9"/>
</svg>
